<svg xmlns="http://www.w3.org/2000/svg" version="1.1" width="192px" height="192px"><g><path fill="#8c72ff" d="M 53.5,52.5 C 53.6309,53.3764 53.2975,54.0431 52.5,54.5C 47.9675,53.8602 43.4675,53.1935 39,52.5C 38.6667,53.5 38.3333,54.5 38,55.5C 37.7216,54.5842 37.2216,53.9175 36.5,53.5C 35.8498,42.8456 35.5165,32.179 35.5,21.5C 35.84,19.321 36.84,17.4877 38.5,16C 42.2255,15.2401 45.8922,15.4068 49.5,16.5C 51.9009,28.376 53.2342,40.376 53.5,52.5 Z"/></g><g><path fill="#6284ff" d="M 35.5,21.5 C 35.5165,32.179 35.8498,42.8456 36.5,53.5C 36.5654,53.9382 36.3988,54.2716 36,54.5C 34.5347,52.085 32.368,51.085 29.5,51.5C 30.0043,44.7991 30.8376,38.1325 32,31.5C 32.5717,27.8368 33.7383,24.5035 35.5,21.5 Z"/></g><g><path fill="#7878ff" d="M 29.5,51.5 C 32.368,51.085 34.5347,52.085 36,54.5C 36.3988,54.2716 36.5654,53.9382 36.5,53.5C 37.2216,53.9175 37.7216,54.5842 38,55.5C 38.3333,54.5 38.6667,53.5 39,52.5C 43.4675,53.1935 47.9675,53.8602 52.5,54.5C 53.2975,54.0431 53.6309,53.3764 53.5,52.5C 55.8977,63.9674 57.8977,75.6341 59.5,87.5C 59.5086,89.3084 59.0086,90.9751 58,92.5C 53.6261,91.8743 49.1261,91.8743 44.5,92.5C 44.6495,91.448 44.4828,90.448 44,89.5C 43.7679,90.7375 43.2679,91.7375 42.5,92.5C 42.3215,89.7835 41.8215,87.1168 41,84.5C 40.6174,85.056 40.1174,85.3893 39.5,85.5C 39.7852,83.712 39.4519,82.0453 38.5,80.5C 35.0442,78.7194 31.3776,77.7194 27.5,77.5C 27.7373,76.209 27.404,75.209 26.5,74.5C 27.3803,66.7787 28.3803,59.112 29.5,51.5 Z"/></g><g><path fill="#9d6dff" d="M 98.5,87.5 C 91.4746,87.5611 84.1413,87.5611 76.5,87.5C 76.687,89.5643 77.187,91.5643 78,93.5C 81.6076,100.393 85.4409,107.059 89.5,113.5C 89.5,114.5 89.5,115.5 89.5,116.5C 87.5928,132.538 84.0928,148.205 79,163.5C 77.9741,166.239 76.4741,168.572 74.5,170.5C 71.8127,170.664 69.146,170.497 66.5,170C 64.3496,168.589 62.0163,167.755 59.5,167.5C 59.5,167.167 59.5,166.833 59.5,166.5C 61.7056,155.212 63.7056,143.879 65.5,132.5C 66.4887,129.274 67.4887,125.94 68.5,122.5C 73.9757,90.6444 78.4757,58.6444 82,26.5C 82.4341,20.8547 84.6008,16.0214 88.5,12C 91.8333,11.3333 95.1667,11.3333 98.5,12C 101,13.1667 102.833,15 104,17.5C 104.683,26.8658 104.349,36.1991 103,45.5C 100.74,56.9841 98.5738,68.4841 96.5,80C 96.7388,82.6353 97.4055,85.1353 98.5,87.5 Z"/></g><g><path fill="#9071ff" d="M 26.5,74.5 C 27.404,75.209 27.7373,76.209 27.5,77.5C 31.3776,77.7194 35.0442,78.7194 38.5,80.5C 39.4519,82.0453 39.7852,83.712 39.5,85.5C 37.3906,97.1569 35.3906,108.824 33.5,120.5C 29.5231,118.493 25.1898,117.493 20.5,117.5C 20.5,116.5 20.5,115.5 20.5,114.5C 22.024,100.945 24.024,87.612 26.5,74.5 Z"/></g><g><path fill="#8674ff" d="M 98.5,87.5 C 102.213,95.2582 106.213,102.925 110.5,110.5C 109.711,110.783 109.044,111.283 108.5,112C 101.987,112.172 95.6534,112.672 89.5,113.5C 85.4409,107.059 81.6076,100.393 78,93.5C 77.187,91.5643 76.687,89.5643 76.5,87.5C 84.1413,87.5611 91.4746,87.5611 98.5,87.5 Z"/></g><g><path fill="#7679ff" d="M 110.5,110.5 C 112.861,114.517 115.194,118.517 117.5,122.5C 111.158,122.334 104.825,122.5 98.5,123C 98.4021,124.285 98.4021,125.451 98.5,126.5C 95.8652,123.921 93.6985,120.921 92,117.5C 91.3292,116.748 90.4959,116.414 89.5,116.5C 89.5,115.5 89.5,114.5 89.5,113.5C 95.6534,112.672 101.987,112.172 108.5,112C 109.044,111.283 109.711,110.783 110.5,110.5 Z"/></g><g><path fill="#5d81ff" d="M 59.5,87.5 C 61.3803,96.0215 63.2136,104.688 65,113.5C 65.7249,116.79 66.8916,119.79 68.5,122.5C 67.4887,125.94 66.4887,129.274 65.5,132.5C 64.6587,131.991 64.1587,132.657 64,134.5C 62.513,133.747 62.3463,132.914 63.5,132C 59.0182,132.063 54.8515,131.23 51,129.5C 50.7679,130.737 50.2679,131.737 49.5,132.5C 46.956,119.238 44.6227,105.904 42.5,92.5C 43.2679,91.7375 43.7679,90.7375 44,89.5C 44.4828,90.448 44.6495,91.448 44.5,92.5C 49.1261,91.8743 53.6261,91.8743 58,92.5C 59.0086,90.9751 59.5086,89.3084 59.5,87.5 Z"/></g><g><path fill="#4c85ff" d="M 65.5,132.5 C 63.7056,143.879 61.7056,155.212 59.5,166.5C 54.4833,155.762 51.15,144.429 49.5,132.5C 50.2679,131.737 50.7679,130.737 51,129.5C 54.8515,131.23 59.0182,132.063 63.5,132C 62.3463,132.914 62.513,133.747 64,134.5C 64.1587,132.657 64.6587,131.991 65.5,132.5 Z"/></g><g><path fill="#747aff" d="M 20.5,114.5 C 20.5,115.5 20.5,116.5 20.5,117.5C 25.1898,117.493 29.5231,118.493 33.5,120.5C 32.4898,128.228 31.1565,135.895 29.5,143.5C 28.71,142.391 28.21,141.058 28,139.5C 26.3333,140.167 24.6667,140.833 23,141.5C 21.5587,140.13 19.892,139.13 18,138.5C 17.6667,139.167 17.3333,139.833 17,140.5C 16.5065,138.866 16.3398,137.199 16.5,135.5C 17.0969,128.234 18.4303,121.234 20.5,114.5 Z"/></g><g><path fill="#5c80ff" d="M 117.5,122.5 C 124.822,131.962 133.155,140.462 142.5,148C 145.071,149.454 147.738,150.62 150.5,151.5C 148.444,152.216 146.277,152.883 144,153.5C 138.667,153.5 133.333,153.5 128,153.5C 126.013,152.782 124.179,151.782 122.5,150.5C 121.537,150.97 121.537,151.637 122.5,152.5C 112.767,145.434 104.767,136.767 98.5,126.5C 98.4021,125.451 98.4021,124.285 98.5,123C 104.825,122.5 111.158,122.334 117.5,122.5 Z"/></g><g><path fill="#5b81ff" d="M 16.5,135.5 C 16.3398,137.199 16.5065,138.866 17,140.5C 17.3333,139.833 17.6667,139.167 18,138.5C 19.892,139.13 21.5587,140.13 23,141.5C 24.6667,140.833 26.3333,140.167 28,139.5C 28.21,141.058 28.71,142.391 29.5,143.5C 28.4214,149.893 27.0881,156.226 25.5,162.5C 24.71,161.391 24.21,160.058 24,158.5C 22.1648,160.964 20.1648,160.964 18,158.5C 15.6932,160.094 14.3598,159.428 14,156.5C 13.6667,157.5 13.3333,158.5 13,159.5C 12.5357,158.906 12.369,158.239 12.5,157.5C 13.474,149.974 14.8073,142.641 16.5,135.5 Z"/></g><g><path fill="#4789ff" d="M 150.5,151.5 C 159.205,153.567 167.371,156.9 175,161.5C 180.308,176.522 175.475,181.022 160.5,175C 146.019,170.271 133.352,162.771 122.5,152.5C 121.537,151.637 121.537,150.97 122.5,150.5C 124.179,151.782 126.013,152.782 128,153.5C 133.333,153.5 138.667,153.5 144,153.5C 146.277,152.883 148.444,152.216 150.5,151.5 Z"/></g><g><path fill="#4a8aff" d="M 25.5,162.5 C 24.6205,168.645 22.2872,174.145 18.5,179C 13.6224,179.437 10.2891,177.437 8.5,173C 9.36994,167.584 10.7033,162.417 12.5,157.5C 12.369,158.239 12.5357,158.906 13,159.5C 13.3333,158.5 13.6667,157.5 14,156.5C 14.3598,159.428 15.6932,160.094 18,158.5C 20.1648,160.964 22.1648,160.964 24,158.5C 24.21,160.058 24.71,161.391 25.5,162.5 Z"/></g><g><path fill="#468bff" d="M 59.5,167.5 C 62.0163,167.755 64.3496,168.589 66.5,170C 69.146,170.497 71.8127,170.664 74.5,170.5C 71.7964,173.303 68.4631,174.137 64.5,173C 61.9441,171.945 60.2775,170.112 59.5,167.5 Z"/></g></svg>