<?xml version="1.0" encoding="utf-8"?>
<!-- Generator: Adobe Illustrator 23.0.2, SVG Export Plug-In . SVG Version: 6.00 Build 0)  -->
<svg version="1.1" id="レイヤー_1" xmlns="http://www.w3.org/2000/svg" xmlns:xlink="http://www.w3.org/1999/xlink" x="0px"
	 y="0px" viewBox="0 0 700 700" style="enable-background:new 0 0 700 700;" xml:space="preserve">
<style type="text/css">
	.st0{fill:none;stroke:#000000;stroke-width:70;stroke-miterlimit:10;}
</style>
<g>
	<g>
		<line class="st0" x1="35" y1="0" x2="35" y2="700"/>
	</g>
	<g>
		<line class="st0" x1="665" y1="0" x2="665" y2="700"/>
	</g>
	<g>
		<line class="st0" x1="0" y1="35" x2="700" y2="35"/>
	</g>
	<g>
		<line class="st0" x1="0" y1="665" x2="700" y2="665"/>
	</g>
</g>
<g>
	<path d="M482.6,434.52v211.79h-56.46V434.52c0-30.72-5.39-53.3-16.17-67.75c-10.79-14.44-27.67-21.67-50.66-21.67
		c-26.25,0-46.44,9.31-60.58,27.92c-14.14,18.62-21.21,45.32-21.21,80.11v193.18h-56.15v-341.8h56.15v51.27
		c9.97-19.53,23.5-34.33,40.59-44.4c17.09-10.07,37.33-15.11,60.73-15.11c34.79,0,60.78,11.44,77.97,34.33
		C474,353.5,482.6,388.13,482.6,434.52z"/>
</g>
<g>
</g>
<g>
</g>
<g>
</g>
<g>
</g>
<g>
</g>
<g>
</g>
<g>
</g>
<g>
</g>
<g>
</g>
<g>
</g>
<g>
</g>
<g>
</g>
<g>
</g>
<g>
</g>
<g>
</g>
</svg>
